<svg width="25" height="26" viewBox="0 0 25 26" fill="none" xmlns="http://www.w3.org/2000/svg">
<g id="cake">
<rect id="Rectangle 3164" x="3.55566" y="8.35059" width="18" height="3.9" rx="1.95" stroke="#ECB35D" stroke-width="2"/>
<path id="Vector 11" d="M12.5557 8.2V7" stroke="#ECB35D" stroke-width="2" stroke-linecap="round"/>
<path id="Ellipse 178" d="M11.0937 4.67201C11.0937 3.88304 12.5 2.35059 12.5 2.35059C12.5 2.35059 13.9063 3.88304 13.9063 4.67201C13.9063 5.46099 13.2767 6.10059 12.5 6.10059C11.7233 6.10059 11.0937 5.46099 11.0937 4.67201Z" stroke="#ECB35D" stroke-width="2"/>
<path id="Union 4" d="M12.5551 18.25V16.9C12.5551 16.8172 12.4879 16.75 12.4051 16.75H9.74508C9.66224 16.75 9.59559 16.8172 9.59015 16.8999C9.55446 17.4419 9.32619 17.9545 8.94486 18.341C8.52852 18.7629 7.96386 19 7.37508 19C6.7863 19 6.22163 18.7629 5.8053 18.341C5.42397 17.9545 5.19569 17.4419 5.16001 16.8999C5.15456 16.8172 5.08792 16.75 5.00508 16.75H3.67508C3.0863 16.75 2.52163 16.5129 2.1053 16.091C1.68897 15.669 1.45508 15.0967 1.45508 14.5C1.45508 13.9033 1.68897 13.331 2.1053 12.909C2.52163 12.4871 3.0863 12.25 3.67508 12.25H21.4351C22.0239 12.25 22.5885 12.4871 23.0049 12.909C23.4212 13.331 23.6551 13.9033 23.6551 14.5C23.6551 15.0967 23.4212 15.669 23.0049 16.091C22.5885 16.5129 22.0239 16.75 21.4351 16.75H17.1451C17.0622 16.75 16.9951 16.8172 16.9951 16.9V18.25C16.9951 18.8467 16.7612 19.419 16.3449 19.841C15.9285 20.2629 15.3639 20.5 14.7751 20.5C14.1863 20.5 13.6216 20.2629 13.2053 19.841C12.789 19.419 12.5551 18.8467 12.5551 18.25Z" stroke="#ECB35D" stroke-width="2"/>
<path id="Subtraction 9" d="M20.3153 24.0994H4.85631C4.71426 24.0992 4.5769 24.0485 4.46868 23.9565C4.36046 23.8645 4.28839 23.7371 4.26531 23.5969L3.26481 17.5969C3.25066 17.511 3.25538 17.423 3.27865 17.3391C3.30192 17.2552 3.34317 17.1773 3.39955 17.111C3.45593 17.0446 3.52608 16.9913 3.60513 16.9548C3.68418 16.9182 3.77023 16.8993 3.85731 16.8994H4.9104C5.06885 16.8994 5.19785 17.0233 5.22738 17.179C5.31031 17.6162 5.52159 18.0213 5.83731 18.3409C6.042 18.5494 6.28617 18.7149 6.55556 18.828C6.82496 18.941 7.11417 18.9992 7.40631 18.9992C7.69845 18.9992 7.98767 18.941 8.25706 18.828C8.52645 18.7149 8.77062 18.5494 8.97531 18.3409C9.29103 18.0213 9.50231 17.6162 9.58524 17.179C9.61477 17.0233 9.74377 16.8994 9.90222 16.8994H12.2873C12.453 16.8994 12.5873 17.0337 12.5873 17.1994V18.2494C12.5847 18.845 12.8182 19.4173 13.2368 19.8409C13.4412 20.0497 13.6853 20.2156 13.9548 20.3287C14.2242 20.4417 14.5136 20.4998 14.8058 20.4994C15.0981 20.4986 15.3873 20.44 15.6568 20.327C15.9263 20.214 16.1709 20.0488 16.3763 19.8409C16.7922 19.4154 17.0257 18.8444 17.0273 18.2494V17.1994C17.0273 17.0337 17.1616 16.8994 17.3273 16.8994H21.3158C21.4029 16.8995 21.489 16.9186 21.5679 16.9553C21.6469 16.992 21.717 17.0455 21.7732 17.112C21.8295 17.1785 21.8705 17.2565 21.8936 17.3405C21.9167 17.4245 21.9212 17.5125 21.9068 17.5984L20.9063 23.5984C20.8829 23.7383 20.8107 23.8654 20.7025 23.9571C20.5943 24.0488 20.4571 24.0992 20.3153 24.0994Z" stroke="#ECB35D" stroke-width="2"/>
</g>
</svg>
