<svg width="25" height="24" viewBox="0 0 25 24" fill="none" xmlns="http://www.w3.org/2000/svg">
<g id="vuesax/linear/calendar-remove">
<g id="calendar-remove">
<path id="Vector" d="M8.55566 2V5" stroke="#807DF0" stroke-width="1.5" stroke-miterlimit="10" stroke-linecap="round" stroke-linejoin="round"/>
<path id="Vector_2" d="M16.5557 2V5" stroke="#807DF0" stroke-width="1.5" stroke-miterlimit="10" stroke-linecap="round" stroke-linejoin="round"/>
<path id="Vector_3" d="M4.05566 9.08997H21.0557" stroke="#807DF0" stroke-width="2" stroke-miterlimit="10" stroke-linecap="round" stroke-linejoin="round"/>
<path id="Vector_4" d="M18.5557 23C20.7648 23 22.5557 21.2091 22.5557 19C22.5557 16.7909 20.7648 15 18.5557 15C16.3465 15 14.5557 16.7909 14.5557 19C14.5557 21.2091 16.3465 23 18.5557 23Z" stroke="#807DF0" stroke-width="2" stroke-miterlimit="10" stroke-linecap="round" stroke-linejoin="round"/>
<g id="Group">
<path id="Vector_5" d="M19.6256 20.11L17.5056 18" stroke="#807DF0" stroke-miterlimit="10" stroke-linecap="round" stroke-linejoin="round"/>
<path id="Vector_6" d="M19.6056 18.02L17.4856 20.14" stroke="#807DF0" stroke-miterlimit="10" stroke-linecap="round" stroke-linejoin="round"/>
</g>
<path id="Vector_7" d="M21.5557 8.5V16.36C20.8257 15.53 19.7557 15 18.5557 15C16.3457 15 14.5557 16.79 14.5557 19C14.5557 19.75 14.7657 20.46 15.1357 21.06C15.3457 21.42 15.6157 21.74 15.9257 22H8.55566C5.05566 22 3.55566 20 3.55566 17V8.5C3.55566 5.5 5.05566 3.5 8.55566 3.5H16.5557C20.0557 3.5 21.5557 5.5 21.5557 8.5Z" stroke="#807DF0" stroke-width="2" stroke-miterlimit="10" stroke-linecap="round" stroke-linejoin="round"/>
<path id="Vector_8" d="M12.5511 13.7H12.5601" stroke="#807DF0" stroke-width="2" stroke-linecap="round" stroke-linejoin="round"/>
<path id="Vector_9" d="M8.84998 13.7H8.85896" stroke="#807DF0" stroke-width="2" stroke-linecap="round" stroke-linejoin="round"/>
<path id="Vector_10" d="M8.84998 16.7H8.85896" stroke="#807DF0" stroke-width="2" stroke-linecap="round" stroke-linejoin="round"/>
</g>
</g>
</svg>
