<svg width="24" height="24" viewBox="0 0 24 24" fill="none" xmlns="http://www.w3.org/2000/svg">
<g id="filter">
<path id="Vector" d="M5.39996 2.10059H18.6C19.7 2.10059 20.6 3.00059 20.6 4.10059V6.30059C20.6 7.10059 20.1 8.10059 19.6 8.60059L15.3 12.4006C14.7 12.9006 14.3 13.9006 14.3 14.7006V19.0006C14.3 19.6006 13.9 20.4006 13.4 20.7006L12 21.6006C10.7 22.4006 8.89996 21.5006 8.89996 19.9006V14.6006C8.89996 13.9006 8.49996 13.0006 8.09996 12.5006L4.29996 8.50059C3.79996 8.00059 3.39996 7.10059 3.39996 6.50059V4.20059C3.39996 3.00059 4.29996 2.10059 5.39996 2.10059Z" stroke="#212121" stroke-width="2" stroke-miterlimit="10" stroke-linecap="round" stroke-linejoin="round"/>
</g>
</svg>
