<svg width="25" height="25" viewBox="0 0 25 25" fill="none" xmlns="http://www.w3.org/2000/svg">
<g id="ph:coffee-bold" clip-path="url(#clip0_415_475)">
<path id="Vector" d="M20.2703 8.02136H3.39526C3.0969 8.02136 2.81075 8.13989 2.59977 8.35087C2.38879 8.56185 2.27026 8.84799 2.27026 9.14636V13.6464C2.27379 16.011 3.1686 18.2873 4.7762 20.0214H3.39526C3.0969 20.0214 2.81075 20.1399 2.59977 20.3509C2.38879 20.5618 2.27026 20.848 2.27026 21.1464C2.27026 21.4447 2.38879 21.7309 2.59977 21.9419C2.81075 22.1528 3.0969 22.2714 3.39526 22.2714H19.8953C20.1936 22.2714 20.4798 22.1528 20.6908 21.9419C20.9017 21.7309 21.0203 21.4447 21.0203 21.1464C21.0203 20.848 20.9017 20.5618 20.6908 20.3509C20.4798 20.1399 20.1936 20.0214 19.8953 20.0214H18.5143C19.3227 19.1484 19.9589 18.1305 20.3893 17.0214C21.4626 16.9904 22.4815 16.5421 23.2295 15.7719C23.9775 15.0016 24.3957 13.9701 24.3953 12.8964V12.1464C24.394 11.0527 23.959 10.0042 23.1857 9.23092C22.4124 8.4576 21.3639 8.0226 20.2703 8.02136ZM18.7703 13.6464C18.7679 14.9692 18.3986 16.2655 17.7034 17.3909C17.0083 18.5164 16.0146 19.427 14.8328 20.0214H8.45776C7.27597 19.427 6.28224 18.5164 5.58709 17.3909C4.89195 16.2655 4.52264 14.9692 4.52026 13.6464V10.2714H18.7703V13.6464ZM22.1453 12.8964C22.1449 13.2708 22.0325 13.6365 21.8225 13.9464C21.6124 14.2564 21.3144 14.4963 20.9668 14.6354C21.0026 14.307 21.0204 13.9768 21.0203 13.6464V10.4289C21.3545 10.5747 21.6389 10.8149 21.8387 11.1199C22.0386 11.425 22.1451 11.7817 22.1453 12.1464V12.8964ZM6.77026 5.39636V3.14636C6.77026 2.84799 6.88879 2.56185 7.09977 2.35087C7.31075 2.13989 7.5969 2.02136 7.89526 2.02136C8.19363 2.02136 8.47978 2.13989 8.69076 2.35087C8.90174 2.56185 9.02026 2.84799 9.02026 3.14636V5.39636C9.02026 5.69473 8.90174 5.98088 8.69076 6.19186C8.47978 6.40284 8.19363 6.52136 7.89526 6.52136C7.5969 6.52136 7.31075 6.40284 7.09977 6.19186C6.88879 5.98088 6.77026 5.69473 6.77026 5.39636ZM10.5203 5.39636V3.14636C10.5203 2.84799 10.6388 2.56185 10.8498 2.35087C11.0607 2.13989 11.3469 2.02136 11.6453 2.02136C11.9436 2.02136 12.2298 2.13989 12.4408 2.35087C12.6517 2.56185 12.7703 2.84799 12.7703 3.14636V5.39636C12.7703 5.69473 12.6517 5.98088 12.4408 6.19186C12.2298 6.40284 11.9436 6.52136 11.6453 6.52136C11.3469 6.52136 11.0607 6.40284 10.8498 6.19186C10.6388 5.98088 10.5203 5.69473 10.5203 5.39636ZM14.2703 5.39636V3.14636C14.2703 2.84799 14.3888 2.56185 14.5998 2.35087C14.8107 2.13989 15.0969 2.02136 15.3953 2.02136C15.6936 2.02136 15.9798 2.13989 16.1908 2.35087C16.4017 2.56185 16.5203 2.84799 16.5203 3.14636V5.39636C16.5203 5.69473 16.4017 5.98088 16.1908 6.19186C15.9798 6.40284 15.6936 6.52136 15.3953 6.52136C15.0969 6.52136 14.8107 6.40284 14.5998 6.19186C14.3888 5.98088 14.2703 5.69473 14.2703 5.39636Z" fill="#ECB35D"/>
</g>
<defs>
<clipPath id="clip0_415_475">
<rect width="24" height="24" fill="white" transform="translate(0.392578 0.896484)"/>
</clipPath>
</defs>
</svg>
