<svg width="22" height="24" viewBox="0 0 22 24" fill="none" xmlns="http://www.w3.org/2000/svg">
<g id="upcoming-leaves">
<path id="Vector" d="M6.05566 1.5V4.5" stroke="#3BBCA0" stroke-width="1.5" stroke-linecap="round" stroke-linejoin="round"/>
<path id="Vector_2" d="M14.0557 1.5V4.5" stroke="#3BBCA0" stroke-width="1.5" stroke-linecap="round" stroke-linejoin="round"/>
<path id="Vector_3" d="M1.55566 8.59961H18.5557" stroke="#3BBCA0" stroke-width="1.5" stroke-linecap="round" stroke-linejoin="round"/>
<path id="Vector_4" d="M20.0557 18.5C20.0557 19.3 19.8557 20 19.4557 20.6C18.7557 21.8 17.4557 22.5 16.0557 22.5C14.6557 22.5 14.1557 22.1 13.4557 21.5C13.1557 21.2 12.8557 20.9 12.6557 20.6C12.2557 20 12.0557 19.3 12.0557 18.5C12.0557 16.3 13.8557 14.5 16.0557 14.5C18.2557 14.5 18.3557 15 19.0557 15.9C19.6557 16.6 20.0557 17.5 20.0557 18.5Z" stroke="#3BBCA0" stroke-width="2" stroke-linecap="round" stroke-linejoin="round"/>
<path id="Vector_5" d="M19.0557 8V15.9C18.3557 15.1 17.2557 14.5 16.0557 14.5C13.8557 14.5 12.0557 16.3 12.0557 18.5C12.0557 20.7 12.2557 20 12.6557 20.6C12.8557 21 13.1557 21.3 13.4557 21.5H6.05566C2.55566 21.5 1.05566 19.5 1.05566 16.5V8C1.05566 5 2.55566 3 6.05566 3H14.0557C17.5557 3 19.0557 5 19.0557 8Z" stroke="#3BBCA0" stroke-width="2" stroke-linecap="round" stroke-linejoin="round"/>
<path id="Vector_6" d="M16.0561 19.8996L17.4561 18.4996M17.4561 18.4996L16.0561 17.0996M17.4561 18.4996H14.4561" stroke="#3BBCA0" stroke-linecap="round" stroke-linejoin="round"/>
</g>
</svg>
